<svg xmlns="http://www.w3.org/2000/svg" width="144" height="38" viewBox="0 0 144 38" fill="none"><path fill-rule="evenodd" clip-rule="evenodd" d="M10.1166 3.80592C10.6084 3.90672 11.0577 4.15999 11.453 4.59319C12.1953 5.40521 12.1184 6.68559 11.6031 7.96474C11.077 9.27042 10.0497 10.7062 8.65856 11.9766C8.44141 12.1749 8.21548 12.3613 8.00588 12.5326C7.85608 12.655 7.63634 12.6316 7.51507 12.4804C7.3938 12.3292 7.41693 12.1074 7.56673 11.985C7.7759 11.8141 7.98867 11.6383 8.1903 11.4542C9.52117 10.2388 10.478 8.88696 10.9565 7.69936C11.4456 6.48538 11.3937 5.567 10.9399 5.07073L10.9396 5.07045C10.637 4.73881 10.316 4.56563 9.97771 4.49629C9.63321 4.42567 9.24646 4.45798 8.81118 4.57892C7.93687 4.82183 6.96072 5.39203 5.88391 6.02103L5.84731 6.04241C5.6805 6.13985 5.46701 6.08234 5.37048 5.91397C5.27394 5.7456 5.33091 5.53013 5.49772 5.43269C5.52767 5.4152 5.55763 5.39769 5.5876 5.38018C6.62067 4.77652 7.66358 4.1671 8.62595 3.89972C9.12791 3.76026 9.63105 3.7064 10.1166 3.80592Z" fill="#D23151"></path><path d="M30.8587 7.61663C30.6493 6.75116 30.1308 6.00644 29.4328 5.50326C29.1337 5.28186 28.7947 5.12084 28.4358 5.00008C28.0868 4.88937 27.7179 4.83905 27.339 4.82899C26.2023 4.78874 25.315 5.53345 25.315 5.53345L23.3806 7.08325L18.3155 11.1188L17.8369 11.5012C17.4381 11.8232 16.8798 11.8232 16.4809 11.5012L15.783 10.9376L8.70379 5.51332C8.12549 4.99001 7.36771 4.66797 6.53017 4.66797C4.9548 4.66797 3.64865 5.7951 3.34952 7.28453C3.32958 7.34491 3.14014 22.4304 3.14014 22.4304C3.14014 23.165 3.46917 23.8493 4.0375 24.3022L15.1847 33.1985C16.3513 34.1244 17.9965 34.1244 19.1531 33.1985L25.315 28.2774L29.7021 24.7853C30.5097 24.1412 30.9683 23.1751 30.9683 22.1385C30.9683 22.1486 30.9285 7.89841 30.8587 7.61663ZM28.4358 21.1221C28.4358 22.3096 27.7677 23.3462 26.7906 23.8695C26.3619 24.1009 25.8733 24.2318 25.3548 24.2318C24.6868 24.2318 24.0786 24.0204 23.5801 23.6581L21.2369 21.7964L11.2862 13.8561C10.7577 13.4334 9.99998 13.5039 9.5513 14.0071C9.34191 14.2486 9.23223 14.5505 9.23223 14.8524C9.23223 15.2348 9.39176 15.6072 9.71082 15.8588L19.2029 23.4267L21.6657 25.3589C22.2639 25.8218 22.3337 26.6974 21.8152 27.2509C21.566 27.5226 21.217 27.6635 20.878 27.6635C20.5988 27.6635 20.3196 27.5729 20.0903 27.3817L10.0598 19.3006C9.5812 18.9181 8.9032 18.9383 8.45452 19.3408C8.44455 19.3509 8.43457 19.3609 8.4246 19.3609C7.8463 19.8843 7.87622 20.8 8.48443 21.2932L17.7372 28.7202C18.3355 29.1932 18.3754 30.0888 17.8369 30.6222C17.3783 31.0751 16.6704 31.1053 16.1718 30.7128L6.97885 23.4166L6.57006 23.0845C6.00173 22.6316 5.67269 21.9372 5.67269 21.2127V9.21675C5.67269 9.16643 5.67269 7.69714 7.01874 7.69714C7.52724 7.69714 8.20525 8.11982 8.20525 8.11982L10.7378 10.1426L17.1789 15.2852L22.6528 19.6528L24.5273 21.1724C25.0557 21.5951 25.8135 21.5347 26.2622 21.0315C26.7507 20.4881 26.6809 19.6427 26.1126 19.1899L23.9191 17.4187C23.59 17.157 23.59 16.6639 23.9191 16.4022L26.1425 14.5304C26.6311 14.1178 26.6809 13.3831 26.2622 12.9101C25.8235 12.4069 25.0856 12.3063 24.5273 12.6686L22.2938 14.3995C21.7255 14.8625 21.0276 14.8725 20.5888 14.5103C19.9707 14.0071 19.9707 13.0611 20.5988 12.5579L25.3349 8.78402L25.9232 8.31102C25.9232 8.31102 26.5912 7.74746 27.0997 7.74746C27.8475 7.74746 28.4458 8.36134 28.4458 9.11612C28.4358 9.12618 28.4358 21.0818 28.4358 21.1221Z" fill="#D33551"></path><path fill-rule="evenodd" clip-rule="evenodd" d="M7.98624 11.1302C7.3947 11.1302 6.91938 11.6102 6.91938 12.197C6.91938 12.7838 7.3947 13.2637 7.98624 13.2637C8.57779 13.2637 9.05311 12.7838 9.05311 12.197C9.05311 11.6102 8.57778 11.1302 7.98624 11.1302ZM6.22144 12.197C6.22144 11.2164 7.01389 10.4258 7.98624 10.4258C8.95859 10.4258 9.75106 11.2164 9.75106 12.197C9.75106 13.1775 8.95859 13.9682 7.98624 13.9682C7.01389 13.9682 6.22144 13.1775 6.22144 12.197Z" fill="#D23151"></path><path d="M48.4232 22.3169C48.4232 24.741 46.4776 26.6866 44.0536 26.6866H37.228V11.0576H43.5433C45.8716 11.0576 47.7534 12.9714 47.7534 15.2679C47.7534 16.7351 47.0517 17.9153 45.9035 18.5851C47.4025 19.1911 48.4232 20.5945 48.4232 22.3169ZM38.7909 12.5249V17.979H43.5433C45.0104 17.979 46.1905 16.767 46.1905 15.2679C46.1905 13.7688 45.0104 12.5567 43.5433 12.5567H38.7909V12.5249ZM46.8603 22.3169C46.8603 20.7221 45.6164 19.4462 44.0536 19.4462H38.7909V25.2194H44.0536C45.5845 25.2194 46.8603 23.9436 46.8603 22.3169Z" fill="#303030"></path><path d="M55.4463 15.3311V16.7664C53.6601 16.7664 51.9059 17.6913 51.9059 20.4663V26.686H50.4387V15.5224H51.9059V17.3724C52.7033 15.8095 54.011 15.3311 55.4463 15.3311Z" fill="#303030"></path><path d="M68.1399 15.5208V26.6843H66.6727V24.4835C65.7478 25.9826 64.153 26.9395 62.1436 26.9395C58.986 26.9395 56.3706 24.3878 56.3706 21.1025C56.3706 17.8173 58.986 15.2656 62.1436 15.2656C64.1211 15.2656 65.7159 16.2225 66.6727 17.7216V15.5208H68.1399ZM66.6408 21.1025C66.6408 18.6147 64.7271 16.6691 62.2393 16.6691C59.7515 16.6691 57.8378 18.6147 57.8378 21.1025C57.8378 23.5904 59.7515 25.5361 62.2393 25.5361C64.7271 25.5042 66.6408 23.5585 66.6408 21.1025Z" fill="#303030"></path><path d="M80.4427 19.8303V26.6879H78.9755V19.8303C78.9755 17.8527 77.8911 16.6726 75.9455 16.6726C73.968 16.6726 72.3095 17.8209 72.3095 20.8191V26.656H70.8423V15.4924H72.3095V17.2467C73.1706 15.8433 74.4783 15.2373 76.0731 15.2373C78.7842 15.2373 80.4427 17.0234 80.4427 19.8303Z" fill="#303030"></path><path d="M93.9739 11.0576V26.6866H92.5067V24.4858C91.5817 25.9849 89.987 26.9418 87.9776 26.9418C84.82 26.9418 82.2046 24.3901 82.2046 21.1048C82.2046 17.8195 84.82 15.2679 87.9776 15.2679C89.9551 15.2679 91.5499 16.2248 92.5067 17.7239V11.0576H93.9739ZM92.4748 21.1048C92.4748 18.6169 90.5611 16.6713 88.0733 16.6713C85.5855 16.6713 83.6718 18.6169 83.6718 21.1048C83.6718 23.5927 85.5855 25.5383 88.0733 25.5383C90.5611 25.5065 92.4748 23.5608 92.4748 21.1048Z" fill="#303030"></path><path d="M111.196 26.6866H110.016V12.78L104.211 22.3806H104.019L98.2145 12.78V26.6866H97.0344V11.0576H98.5016L104.115 20.3074L109.729 11.0576H111.228V26.6866H111.196Z" fill="#303030"></path><path d="M125.425 15.5208V26.6843H124.276V24.1646C123.351 25.8551 121.597 26.9395 119.46 26.9395C116.271 26.9395 113.655 24.4197 113.655 21.1025C113.655 17.7854 116.271 15.2656 119.46 15.2656C121.597 15.2656 123.319 16.3501 124.276 18.0405V15.5208H125.425ZM124.276 21.1025C124.276 18.4552 122.203 16.3501 119.556 16.3501C116.909 16.3501 114.803 18.4552 114.803 21.1025C114.803 23.7499 116.877 25.855 119.556 25.855C122.235 25.855 124.276 23.7499 124.276 21.1025Z" fill="#303030"></path><path d="M133.262 15.3672V16.4517C131.348 16.4517 129.53 17.6318 129.53 20.5025V26.7221H128.414V15.5586H129.53V17.7594C130.295 15.9413 131.763 15.3672 133.262 15.3672Z" fill="#303030"></path><path d="M137.488 16.6106V23.8829C137.488 25.8604 138.54 25.8923 140.837 25.701V26.7216C137.902 27.1682 136.371 26.4665 136.371 23.9148V16.6425H133.916V15.5581H136.371V12.7512L137.52 12.4004V15.5262H140.869V16.6106H137.488Z" fill="#303030"></path></svg>